<?xml version="1.0" encoding="UTF-8" standalone="no"?>
<!-- Generator: Adobe Illustrator 15.0.0, SVG Export Plug-In . SVG Version: 6.00 Build 0)  -->

<svg
   xmlns:dc="http://purl.org/dc/elements/1.1/"
   xmlns:cc="http://creativecommons.org/ns#"
   xmlns:rdf="http://www.w3.org/1999/02/22-rdf-syntax-ns#"
   xmlns:svg="http://www.w3.org/2000/svg"
   xmlns="http://www.w3.org/2000/svg"
   xmlns:sodipodi="http://sodipodi.sourceforge.net/DTD/sodipodi-0.dtd"
   xmlns:inkscape="http://www.inkscape.org/namespaces/inkscape"
   version="1.1"
   id="Layer_1"
   x="0px"
   y="0px"
   width="216"
   height="216"
   viewBox="0 0 216 170"
   enable-background="new 0 0 216 216"
   xml:space="preserve"
   inkscape:version="0.48.3.1 r9886"
   sodipodi:docname="Shifter_logo1.svg"><metadata
   id="metadata51"><rdf:RDF><cc:Work
       rdf:about=""><dc:format>image/svg+xml</dc:format><dc:type
         rdf:resource="http://purl.org/dc/dcmitype/StillImage" /><dc:title></dc:title></cc:Work></rdf:RDF></metadata><defs
   id="defs49" /><sodipodi:namedview
   pagecolor="#ffffff"
   bordercolor="#666666"
   borderopacity="1"
   objecttolerance="10"
   gridtolerance="10"
   guidetolerance="10"
   inkscape:pageopacity="0"
   inkscape:pageshadow="2"
   inkscape:window-width="641"
   inkscape:window-height="480"
   id="namedview47"
   showgrid="false"
   inkscape:zoom="1.375"
   inkscape:cx="108"
   inkscape:cy="108"
   inkscape:window-x="115"
   inkscape:window-y="97"
   inkscape:window-maximized="0"
   inkscape:current-layer="Layer_1" />
<g
   id="g3"
   transform="matrix(1.5020921,0,0,1.5858998,-51.751526,-59.269828)">
	<path
   d="m 76.635,84.379 -23.026,8.379 c 0.294,3.692 0.931,7.339 1.825,10.911 l 21.872,-7.964 c -0.71,-3.697 -0.962,-7.509 -0.671,-11.326"
   id="path5"
   inkscape:connector-curvature="0"
   style="fill:#c22334" />
	<path
   d="m 178.393,58.918 c -1.605,-3.312 -3.463,-6.514 -5.615,-9.53 l -23.021,8.378 c 2.679,2.741 4.927,5.82 6.765,9.114 l 21.871,-7.962 z"
   id="path7"
   inkscape:connector-curvature="0"
   style="fill:#c22334" />
	<path
   d="m 127.738,52.397 c 4.789,2.235 8.938,5.284 12.437,8.859 l 23.022,-8.38 C 156.82,43.929 148.134,36.452 137.492,31.486 104.583,16.14 65.319,30.43 49.974,63.334 45.007,73.983 43.162,85.295 44.028,96.246 l 23.024,-8.378 c 0.382,-4.988 1.6,-9.987 3.831,-14.78 9.971,-21.381 35.475,-30.659 56.855,-20.691"
   id="path9"
   inkscape:connector-curvature="0"
   style="fill:#db242f" />
	<path
   d="m 56.868,103.146 -21.875,7.967 c 2.01,7.977 5.496,15.554 10.287,22.297 l 22.972,-8.361 C 62.355,118.991 58.434,111.33 56.868,103.146"
   id="path11"
   inkscape:connector-curvature="0"
   style="fill:#ea2629" />
	<path
   d="m 152.291,94.465 c -0.367,4.985 -1.625,9.985 -3.863,14.782 -9.971,21.384 -35.476,30.661 -56.854,20.691 -4.796,-2.237 -8.975,-5.261 -12.463,-8.843 l -22.973,8.362 c 6.361,8.948 15.039,16.428 25.686,21.397 32.91,15.343 72.169,1.053 87.515,-31.855 4.97,-10.645 6.804,-21.952 5.926,-32.896 l -22.974,8.362 z"
   id="path13"
   inkscape:connector-curvature="0"
   style="fill:#db242f" />
	<path
   d="m 157.952,66.358 -21.873,7.962 c 4.062,7.279 5.981,15.662 5.354,24.091 l 22.973,-8.357 c -0.658,-8.244 -2.857,-16.291 -6.454,-23.696"
   id="path15"
   inkscape:connector-curvature="0"
   style="fill:#ea2629" />
	<path
   d="m 76.547,89.002 c -0.055,-1.535 -0.03,-3.078 0.088,-4.622 l -23.027,8.378 c 0.118,1.476 0.304,2.941 0.526,4.4 l 22.413,-8.156 z"
   id="path17"
   inkscape:connector-curvature="0"
   style="fill:#ad233c" />
	<path
   d="m 175.059,52.854 c -0.726,-1.176 -1.477,-2.338 -2.281,-3.466 l -23.02,8.378 c 1.012,1.037 1.944,2.137 2.836,3.265 l 22.465,-8.177 z"
   id="path19"
   inkscape:connector-curvature="0"
   style="fill:#ad233c" />
	<path
   d="m 56.138,129.458 c 1.772,2.493 3.731,4.868 5.855,7.11 l 25.011,-9.121 c -2.923,-1.827 -5.565,-3.961 -7.894,-6.352 l -22.972,8.363 z M 175.264,86.104 152.29,94.463 c -0.242,3.31 -0.888,6.624 -1.942,9.883 l 25.006,-9.12 c 0.179,-3.054 0.151,-6.102 -0.09,-9.122"
   id="path21"
   inkscape:connector-curvature="0"
   style="fill:#ba2234" />
</g>
<g
   id="g23">
	<g
   id="g25">
		
		
	</g>
	
	<g
   id="g33">
		
		
	</g>
	
	
	
	
</g>
</svg>